<svg width="1600" height="1000" viewBox="0 0 1600 1000" fill="none" xmlns="http://www.w3.org/2000/svg">
  <rect width="1600" height="1000" fill="#020812"/>
  <rect y="560" width="1600" height="440" fill="url(#floor)"/>
  <g opacity=".35" stroke="#1677FF">
    <path d="M0 760H1600"/>
    <path d="M0 840H1600"/>
    <path d="M0 920H1600"/>
    <path d="M180 560 40 1000"/>
    <path d="M420 560 340 1000"/>
    <path d="M660 560 640 1000"/>
    <path d="M900 560 960 1000"/>
    <path d="M1140 560 1280 1000"/>
    <path d="M1380 560 1580 1000"/>
  </g>
  <g fill="#0D1D32" stroke="#1C6CE8" stroke-width="2">
    <path d="M170 560H280V332H170V560Z"/>
    <path d="M330 560H480V250H330V560Z"/>
    <path d="M540 560H690V388H540V560Z"/>
    <path d="M760 560H960V184H760V560Z"/>
    <path d="M1030 560H1180V320H1030V560Z"/>
    <path d="M1236 560H1420V220H1236V560Z"/>
  </g>
  <g stroke="#54A0FF" stroke-width="3">
    <path d="M225 332V238L406 190L615 292L860 132L1105 260L1328 174"/>
    <path d="M225 440 406 390 615 454 860 322 1105 404 1328 322"/>
  </g>
  <g fill="#EAF4FF">
    <circle cx="225" cy="238" r="10"/>
    <circle cx="406" cy="190" r="10"/>
    <circle cx="615" cy="292" r="10"/>
    <circle cx="860" cy="132" r="10"/>
    <circle cx="1105" cy="260" r="10"/>
    <circle cx="1328" cy="174" r="10"/>
    <circle cx="225" cy="440" r="7"/>
    <circle cx="406" cy="390" r="7"/>
    <circle cx="615" cy="454" r="7"/>
    <circle cx="860" cy="322" r="7"/>
    <circle cx="1105" cy="404" r="7"/>
    <circle cx="1328" cy="322" r="7"/>
  </g>
  <g opacity=".58">
    <rect x="790" y="220" width="140" height="34" rx="17" fill="#1677FF"/>
    <rect x="790" y="282" width="110" height="22" rx="11" fill="#5EEAD4"/>
    <rect x="790" y="330" width="135" height="22" rx="11" fill="#D98A2B"/>
  </g>
  <defs>
    <linearGradient id="floor" x1="800" y1="560" x2="800" y2="1000" gradientUnits="userSpaceOnUse">
      <stop stop-color="#07182B"/>
      <stop offset="1" stop-color="#020812"/>
    </linearGradient>
  </defs>
</svg>
