<svg xmlns="http://www.w3.org/2000/svg" viewBox="0 0 1200 675" role="img" aria-labelledby="title desc">
  <title id="title">Familiar companion robot near a person doing yoga</title>
  <desc id="desc">Editorial illustration of a soft companion robot sitting beside a person stretching on a yoga mat in a warm living room.</desc>
  <defs>
    <linearGradient id="room" x1="0" x2="1" y1="0" y2="1">
      <stop offset="0" stop-color="#f4e5c7"/>
      <stop offset="0.55" stop-color="#d7b98c"/>
      <stop offset="1" stop-color="#553a25"/>
    </linearGradient>
    <linearGradient id="mat" x1="0" x2="1">
      <stop offset="0" stop-color="#1f6d75"/>
      <stop offset="1" stop-color="#072f3d"/>
    </linearGradient>
    <radialGradient id="glow" cx="62%" cy="52%" r="46%">
      <stop offset="0" stop-color="#fff7df" stop-opacity="0.95"/>
      <stop offset="0.35" stop-color="#f2d9a2" stop-opacity="0.55"/>
      <stop offset="1" stop-color="#22130c" stop-opacity="0"/>
    </radialGradient>
    <filter id="softShadow" x="-20%" y="-20%" width="140%" height="150%">
      <feDropShadow dx="0" dy="18" stdDeviation="18" flood-color="#2d1b10" flood-opacity="0.32"/>
    </filter>
  </defs>
  <rect width="1200" height="675" fill="url(#room)"/>
  <rect y="418" width="1200" height="257" fill="#8c613a"/>
  <rect y="418" width="1200" height="257" fill="url(#glow)"/>
  <g opacity="0.32">
    <path d="M0 418h1200" stroke="#fff1cf" stroke-width="4"/>
    <path d="M78 440h1060M124 486h944M55 532h1090M132 582h980" stroke="#f8d28d" stroke-width="2"/>
    <path d="M122 0v416M310 0v416M506 0v416M708 0v416M902 0v416M1108 0v416" stroke="#f7d69a" stroke-width="3"/>
  </g>
  <g transform="translate(62 94)" opacity="0.55">
    <rect x="0" y="0" width="284" height="292" rx="6" fill="#342316"/>
    <rect x="18" y="22" width="248" height="248" rx="4" fill="#120d0b"/>
    <path d="M44 252c34-86 146-91 189 0" fill="none" stroke="#c59153" stroke-width="9" stroke-linecap="round"/>
    <path d="M52 252c28-52 126-55 170 0" fill="none" stroke="#4a2d19" stroke-width="14" stroke-linecap="round"/>
  </g>
  <rect x="118" y="525" width="642" height="52" rx="26" fill="url(#mat)" filter="url(#softShadow)" transform="rotate(-4 118 525)"/>
  <g filter="url(#softShadow)">
    <path d="M318 220c48 4 87 37 112 85l86 164 152 22c21 3 36 21 33 39-3 19-21 32-43 29l-177-26c-17-3-31-13-39-27l-82-148-154 144c-17 16-42 16-56 1-14-16-10-41 7-57l147-137c-17-28-25-58-18-89 5-21 15-32 34-30Z" fill="#f3d8bd"/>
    <path d="M323 196c24 0 43 17 43 39 0 23-19 40-43 40-23 0-42-17-42-40 0-22 19-39 42-39Z" fill="#2b201b"/>
    <path d="M348 292c31 12 63 40 82 77l-68 65-75-132c15-14 34-18 61-10Z" fill="#ffffff" opacity="0.82"/>
    <path d="M163 505c35-21 79-50 105-76 18-17 45 8 25 30-32 37-78 72-112 92-36 21-55-24-18-46Z" fill="#f0c9aa"/>
    <circle cx="145" cy="542" r="24" fill="#f0c9aa"/>
  </g>
  <g transform="translate(736 284)" filter="url(#softShadow)">
    <ellipse cx="150" cy="180" rx="155" ry="105" fill="#e8d19e"/>
    <ellipse cx="132" cy="108" rx="92" ry="84" fill="#f4dfb3"/>
    <circle cx="66" cy="64" r="36" fill="#d6bd86"/>
    <circle cx="183" cy="62" r="38" fill="#d6bd86"/>
    <circle cx="108" cy="108" r="16" fill="#241b15"/>
    <circle cx="154" cy="106" r="16" fill="#241b15"/>
    <path d="M123 138c20 13 42 13 61-2" fill="none" stroke="#6a4d32" stroke-width="8" stroke-linecap="round"/>
    <ellipse cx="66" cy="242" rx="50" ry="34" fill="#c8ad75"/>
    <ellipse cx="222" cy="242" rx="50" ry="34" fill="#c8ad75"/>
    <path d="M82 178c33 24 78 31 128 6" fill="none" stroke="#b2935d" stroke-width="10" opacity="0.5"/>
    <circle cx="264" cy="161" r="24" fill="#f0dcae"/>
    <path d="M282 168c50 18 75 45 82 82" fill="none" stroke="#d5b77c" stroke-width="18" stroke-linecap="round"/>
  </g>
  <g>
    <rect x="853" y="112" width="180" height="114" rx="8" fill="#3b2418" opacity="0.72"/>
    <rect x="872" y="132" width="142" height="76" rx="4" fill="#15100d"/>
    <rect x="987" y="226" width="18" height="166" rx="9" fill="#5c3a25"/>
  </g>
  <g opacity="0.8">
    <path d="M918 286c32 9 60 37 71 78" fill="none" stroke="#7df9ff" stroke-width="2"/>
    <circle cx="921" cy="286" r="5" fill="#7df9ff"/>
    <circle cx="989" cy="364" r="5" fill="#7df9ff"/>
    <path d="M736 338c-64 24-101 66-111 126" fill="none" stroke="#7df9ff" stroke-width="2" opacity="0.55"/>
  </g>
</svg>
