<svg xmlns="http://www.w3.org/2000/svg" viewBox="0 0 128 128" role="img" aria-label="robologai icon">
  <defs>
    <radialGradient id="glow" cx="62%" cy="48%" r="62%">
      <stop offset="0" stop-color="#8ff7ff" stop-opacity="0.95"/>
      <stop offset="0.45" stop-color="#29d3e6" stop-opacity="0.28"/>
      <stop offset="1" stop-color="#06121d" stop-opacity="0"/>
    </radialGradient>
    <linearGradient id="metal" x1="34" x2="77" y1="24" y2="100" gradientUnits="userSpaceOnUse">
      <stop offset="0" stop-color="#ffffff"/>
      <stop offset="0.42" stop-color="#c6d4df"/>
      <stop offset="1" stop-color="#465b66"/>
    </linearGradient>
    <linearGradient id="cyan" x1="18" x2="112" y1="22" y2="106" gradientUnits="userSpaceOnUse">
      <stop offset="0" stop-color="#98f8ff"/>
      <stop offset="0.56" stop-color="#35d7e7"/>
      <stop offset="1" stop-color="#178fb5"/>
    </linearGradient>
    <filter id="softGlow" x="-35%" y="-35%" width="170%" height="170%">
      <feGaussianBlur stdDeviation="2.4" result="blur"/>
      <feMerge>
        <feMergeNode in="blur"/>
        <feMergeNode in="SourceGraphic"/>
      </feMerge>
    </filter>
  </defs>
  <rect width="128" height="128" rx="28" fill="#06111d"/>
  <circle cx="68" cy="64" r="58" fill="url(#glow)"/>
  <g fill="none" stroke="url(#cyan)" stroke-linecap="round" filter="url(#softGlow)">
    <circle cx="70" cy="62" r="46" stroke-width="2.2"/>
    <circle cx="74" cy="62" r="30" stroke-width="1.8" opacity="0.82"/>
    <circle cx="76" cy="62" r="17" stroke-width="1.8" opacity="0.82"/>
    <path d="M70 16c18 2 33 13 41 30" stroke-width="2.2"/>
    <path d="M33 92c-11-16-13-36-5-54" stroke-width="1.8" opacity="0.76"/>
    <path d="M76 32v61M45 62h66M99 34l-45 57" stroke-width="1.4" opacity="0.58"/>
  </g>
  <g fill="url(#cyan)" filter="url(#softGlow)">
    <circle cx="28" cy="62" r="5.5"/>
    <circle cx="98" cy="24" r="5"/>
    <circle cx="112" cy="59" r="4.5"/>
    <circle cx="76" cy="108" r="5.2"/>
  </g>
  <path fill="url(#metal)" stroke="#9cf7ff" stroke-width="1.2" d="M50 20 29 30l-4 34 12 12-6 19 18 20 14-28 16-18-5-35-24-14Z"/>
  <path fill="#071722" opacity="0.62" d="m34 35-3 27 10 11-4 17 11 13 10-20 13-15-4-27-18-9-15 3Z"/>
  <path fill="#f8fbff" d="M50 22 32 31l-2 27 12 12 18-13-4-27-6-8Z"/>
  <path fill="#263b46" d="m43 72-8 17 12 16 10-22 11-13-25 2Z"/>
  <circle cx="47" cy="61" r="8" fill="#41e6f2" filter="url(#softGlow)"/>
  <circle cx="47" cy="61" r="3.8" fill="#d8ffff"/>
</svg>
