<svg xmlns="http://www.w3.org/2000/svg" viewBox="0 0 64 64" role="img" aria-label="robologai mark">
  <defs>
    <linearGradient id="g" x1="10" x2="54" y1="8" y2="56" gradientUnits="userSpaceOnUse">
      <stop offset="0" stop-color="#74c7ff"/>
      <stop offset="0.52" stop-color="#2f8cff"/>
      <stop offset="1" stop-color="#7c5cff"/>
    </linearGradient>
  </defs>
  <rect width="64" height="64" rx="16" fill="#07111f"/>
  <path fill="url(#g)" d="M32 9c9.8 0 17.8 6.9 17.8 15.5 0 4.8-2.5 9.1-6.5 11.9l4.7 11.4-12.7-7.4c-1.1.2-2.2.3-3.3.3-9.8 0-17.8-6.9-17.8-15.5S22.2 9 32 9Z"/>
  <path fill="#eaf6ff" d="M24.2 24.4a3.4 3.4 0 1 0 0-6.8 3.4 3.4 0 0 0 0 6.8Zm15.6 0a3.4 3.4 0 1 0 0-6.8 3.4 3.4 0 0 0 0 6.8ZM22 31.5c3.1 3 6.4 4.5 10 4.5s6.9-1.5 10-4.5l-2.4-2.8c-2.3 2.1-4.8 3.1-7.6 3.1s-5.3-1-7.6-3.1L22 31.5Z"/>
</svg>
