<svg width="1400" height="900" viewBox="0 0 1400 900" fill="none" xmlns="http://www.w3.org/2000/svg">
  <rect width="1400" height="900" fill="#f4f7f8"/>
  <rect x="0" y="642" width="1400" height="258" fill="#dfe7e8"/>
  <rect x="96" y="98" width="1208" height="548" rx="20" fill="#ffffff"/>
  <rect x="146" y="148" width="1110" height="430" rx="14" fill="#edf3f4"/>
  <path d="M146 578H1256V616C1256 632.568 1242.57 646 1226 646H176C159.431 646 146 632.568 146 616V578Z" fill="#cad7da"/>
  <rect x="198" y="190" width="360" height="34" rx="17" fill="#1a1f22"/>
  <rect x="198" y="246" width="250" height="18" rx="9" fill="#3bc6c8"/>
  <rect x="198" y="288" width="310" height="18" rx="9" fill="#f27d42"/>
  <rect x="198" y="330" width="210" height="18" rx="9" fill="#7ac943"/>
  <rect x="946" y="176" width="224" height="224" rx="112" fill="#d5e1e4"/>
  <path d="M1058 194C998.905 194 951 241.905 951 301V366H1165V301C1165 241.905 1117.09 194 1058 194Z" fill="#eef4f5"/>
  <rect x="1000" y="274" width="116" height="60" rx="30" fill="#1a1f22"/>
  <circle cx="1034" cy="304" r="11" fill="#38d3d5"/>
  <circle cx="1084" cy="304" r="11" fill="#38d3d5"/>
  <rect x="1038" y="360" width="40" height="76" rx="20" fill="#c8d5d8"/>
  <path d="M908 562C922 482 977 430 1058 430C1139 430 1194 482 1208 562H908Z" fill="#ffffff"/>
  <path d="M941 562C954 507 996 475 1058 475C1120 475 1162 507 1175 562H941Z" fill="#cbd9dc"/>
  <rect x="914" y="436" width="52" height="164" rx="26" transform="rotate(18 914 436)" fill="#ffffff"/>
  <rect x="1150" y="452" width="52" height="164" rx="26" transform="rotate(-18 1150 452)" fill="#ffffff"/>
  <path d="M610 196H806V418H610V196Z" fill="#ffffff"/>
  <rect x="642" y="236" width="132" height="18" rx="9" fill="#1a1f22"/>
  <rect x="642" y="282" width="112" height="14" rx="7" fill="#3bc6c8"/>
  <rect x="642" y="316" width="132" height="14" rx="7" fill="#f27d42"/>
  <rect x="642" y="350" width="86" height="14" rx="7" fill="#7ac943"/>
  <path d="M260 512C330 456 426 455 498 512" stroke="#1a1f22" stroke-width="16" stroke-linecap="round"/>
  <path d="M275 512C336 482 421 482 482 512" stroke="#3bc6c8" stroke-width="10" stroke-linecap="round"/>
  <circle cx="338" cy="512" r="16" fill="#f27d42"/>
  <circle cx="426" cy="512" r="16" fill="#7ac943"/>
  <line x1="140" y1="690" x2="1260" y2="690" stroke="#b8c7ca" stroke-width="8" stroke-linecap="round"/>
  <rect x="230" y="722" width="184" height="24" rx="12" fill="#1a1f22"/>
  <rect x="942" y="722" width="228" height="24" rx="12" fill="#1a1f22"/>
</svg>
