<svg width="98" height="26" viewBox="0 0 98 26" fill="none" xmlns="http://www.w3.org/2000/svg">
<g clip-path="url(#clip0_7615_2164)">
<path d="M90.9858 21.7754C93.4836 21.7754 98.0003 20.6516 98.0003 14.5274V4.22375H94.6635V14.3776C94.6635 17.7951 92.1419 18.4216 90.7494 18.4216H90.1531C88.7591 18.4216 86.2391 17.7951 86.2391 14.3776V4.22375H82.9023V14.5274C82.9023 20.6532 87.419 21.7754 89.9168 21.7754H90.9858Z" fill="#0068FF"/>
<path d="M43.2211 10.9441C43.2211 11.985 42.758 13.8659 40.2317 13.8659H34.7951V7.57755H40.2317C42.758 7.57755 43.2211 9.46007 43.2211 10.4994V10.9441ZM46.5579 10.2619C46.5579 8.11154 45.6 4.22375 40.3823 4.22375H31.46V21.6367H34.7967V17.2197H40.3823C45.6016 17.2197 46.5579 13.3319 46.5579 11.1816V10.2619Z" fill="#0068FF"/>
<path d="M80.9788 13.5455C80.9788 16.4259 79.6958 21.6351 72.705 21.6351H72.3181H72.7463H65.8809V4.22375H72.7463H72.3181H72.705C79.6958 4.22375 80.9788 9.43298 80.9788 12.3133V13.5455ZM77.642 12.5509C77.642 10.7799 76.8538 7.57755 72.556 7.57755H69.2176V18.2813H72.556C76.8538 18.2813 77.642 15.079 77.642 13.308V12.5509Z" fill="#0068FF"/>
<path d="M56.4887 21.7754C58.9865 21.7754 63.5032 20.6516 63.5032 14.5274V4.22375H60.1664V14.3776C60.1664 17.7951 57.6448 18.4216 56.2524 18.4216H55.6561C54.2621 18.4216 51.742 17.7951 51.742 14.3776V4.22375H48.4053V14.5274C48.4053 20.6532 52.922 21.7754 55.4198 21.7754H56.4887Z" fill="#0068FF"/>
<path d="M0.114186 25.9884L6.14225 22.4912C6.18982 22.4641 6.21837 22.4131 6.21837 22.3589V0.0762157C6.21837 0.0172373 6.15493 -0.0194248 6.10418 0.0108613L0.0761239 3.50812C0.0285464 3.53521 0 3.58622 0 3.64042V25.9231C0 25.982 0.0634366 26.0187 0.114186 25.9884Z" fill="#0068FF"/>
<path d="M16.5444 25.9884L22.5724 22.4912C22.62 22.4641 22.6485 22.4131 22.6485 22.3589V0.0762157C22.6485 0.0172373 22.5851 -0.0194248 22.5344 0.0108613L16.5063 3.50812C16.4587 3.53521 16.4302 3.58622 16.4302 3.64042V25.9231C16.4302 25.982 16.4936 26.0187 16.5444 25.9884Z" fill="#0068FF"/>
<path d="M14.4332 3.64042V9.94791C14.4332 10.0021 14.4047 10.0531 14.3571 10.0802L8.32903 13.5775C8.27828 13.6062 8.21484 13.5695 8.21484 13.5121V0.0762157C8.21484 0.0172373 8.27828 -0.0194248 8.32903 0.0108613L14.3571 3.50812C14.4047 3.53521 14.4332 3.58622 14.4332 3.64042Z" fill="#0068FF"/>
<path d="M8.21484 16.0514V22.3605C8.21484 22.4147 8.24339 22.4657 8.29097 22.4928L14.319 25.9901C14.3698 26.0188 14.4332 25.9821 14.4332 25.9247V12.4872C14.4332 12.4282 14.3698 12.3916 14.319 12.4219L8.29097 15.9191C8.24339 15.9462 8.21484 15.9972 8.21484 16.0514Z" fill="#0068FF"/>
</g>
<defs>
<clipPath id="clip0_7615_2164">
<rect width="98" height="26" fill="white"/>
</clipPath>
</defs>
</svg>
