<svg width="134" height="24" viewBox="0 0 134 24" fill="none" xmlns="http://www.w3.org/2000/svg">
<path d="M22.9489 0H1.06739C0.477886 0 0 0.477562 0 1.06667V22.9333C0 23.5224 0.477886 24 1.06739 24H22.9489C23.5384 24 24.0163 23.5224 24.0163 22.9333V1.06667C24.0163 0.477562 23.5384 0 22.9489 0Z" fill="#FF5C00"/>
<path d="M6.21345 11.0363V6.16778L7.19968 5.16041L8.18587 6.16778V11.0363L7.19968 12.0219L6.21345 11.0363ZM6.21345 13.0052L7.19968 12.0197L8.18587 13.0052V18.8572L7.19968 19.8427L6.21345 18.8572V13.0052ZM8.18369 4.188H10.9826L11.9688 5.16259L10.9826 6.16996H8.18369L7.19746 5.16259L8.18369 4.188ZM12.9659 6.16778V11.0363L11.9688 12.0219L10.9826 11.0363V6.16778L11.9688 5.16041L12.9659 6.16778ZM12.9659 4.188H15.7649L16.7511 5.16259L15.7649 6.16996H12.9659L11.9688 5.16259L12.9659 4.188ZM17.7372 6.16778V11.0363L16.7511 12.0219L15.7649 11.0363V6.16778L16.7511 5.16041L17.7372 6.16778ZM16.7511 19.8427L15.7649 18.8572V13.0052L16.7511 12.0197L17.7372 13.0052V18.8572L16.7511 19.8427Z" fill="#FFFDF6"/>
<path d="M124.583 19.9091L120.608 15.6834C119.991 15.0205 119.577 14.3953 119.366 13.8078C119.155 13.2052 119.05 12.4444 119.05 11.5255V4.09091H123.205V11.3447C123.205 11.6761 123.236 11.9849 123.296 12.2712C123.371 12.5574 123.431 12.7759 123.476 12.9265C123.522 13.0771 123.657 13.3031 123.883 13.6044C124.109 13.9057 124.244 14.0865 124.29 14.1467C124.35 14.207 124.553 14.433 124.899 14.8247L126.525 16.2935L128.241 14.7795C128.949 13.966 129.378 13.3935 129.529 13.0621C129.754 12.58 129.867 12.0075 129.867 11.3447V4.09091H134V11.5255C134 12.4444 133.902 13.2052 133.706 13.8078C133.511 14.3953 133.119 14.9979 132.532 15.6156L128.467 19.9091H124.583Z" fill="#FF5C00"/>
<path d="M105.297 19.9091C104.424 19.9091 103.679 19.6003 103.062 18.9826C102.444 18.3649 102.136 17.6192 102.136 16.7455V7.25455C102.136 6.38078 102.444 5.63506 103.062 5.01739C103.679 4.39975 104.424 4.09091 105.297 4.09091H113.924C114.797 4.09091 115.542 4.39975 116.16 5.01739C116.777 5.63506 117.086 6.38078 117.086 7.25455V16.7455C117.086 17.6192 116.777 18.3649 116.16 18.9826C115.542 19.6003 114.797 19.9091 113.924 19.9091H105.297ZM106.269 16.1353H112.93V7.86466H106.269V16.1353Z" fill="#FF5C00"/>
<path d="M76.0924 19.9091V7.25455C76.0924 6.38078 76.401 5.63506 77.0181 5.01739C77.6354 4.39975 78.3807 4.09091 79.2538 4.09091H85.5545C86.4578 4.09091 87.2105 4.37714 87.8129 4.94962C88.4149 4.37714 89.1679 4.09091 90.0709 4.09091H96.3717C97.245 4.09091 97.99 4.39975 98.6074 5.01739C99.2247 5.63506 99.5333 6.38078 99.5333 7.25455V19.9091H95.4006V7.86466H89.8679V19.9091H85.7578V7.86466H80.2248V19.9091H76.0924Z" fill="#FF5C00"/>
<path d="M68.9407 19.9091V4.09091H73.1637V19.9091H68.9407Z" fill="#FF5C00"/>
<path d="M54.5557 19.9091C53.6824 19.9091 52.9371 19.6003 52.32 18.9826C51.7027 18.3649 51.3941 17.6192 51.3941 16.7455V14.7117H55.5268V16.3839H62.1886V13.6496H54.6234C53.7351 13.6496 52.9748 13.3483 52.3424 12.7457C51.7254 12.1431 51.4091 11.42 51.3941 10.5764V7.25455C51.3941 6.38078 51.7027 5.63506 52.32 5.01739C52.9371 4.39975 53.6824 4.09091 54.5557 4.09091H63.1822C64.0555 4.09091 64.8006 4.39975 65.4179 5.01739C66.0353 5.63506 66.3439 6.38078 66.3439 7.25455V9.2883H62.1886V7.6161H55.5268V10.3504H63.1822C64.0405 10.3504 64.7706 10.6517 65.3729 11.2543C65.9899 11.8569 66.3139 12.58 66.3439 13.4236V16.7455C66.3439 17.6192 66.0353 18.3649 65.4179 18.9826C64.8006 19.6003 64.0555 19.9091 63.1822 19.9091H54.5557Z" fill="#FF5C00"/>
<path d="M33.8411 19.9091V7.27715C33.8411 6.40336 34.1498 5.65767 34.7671 5.04C35.3842 4.40727 36.1295 4.09091 37.0028 4.09091H45.6293C46.5026 4.09091 47.248 4.39975 47.865 5.01739C48.4823 5.63506 48.791 6.38078 48.791 7.25455V19.9091H44.6356V15.5704H37.9739V19.9091H33.8411ZM37.9739 11.9096H44.6356V7.81947H37.9739V11.9096Z" fill="#FF5C00"/>
</svg>
